{"accessors" : [{"bufferView" : 0, "byteOffset" : 0, "componentType" : 5125, "count" : 552960, "type" : "SCALAR", "max" : [552959], "min" : [0]}, {"bufferView" : 1, "byteOffset" : 0, "componentType" : 5126, "count" : 552960, "type" : "VEC3", "max" : [13271005, 13271009, 13271013], "min" : [-11.151525497436523, -7.151525497436523, -3.1515254974365234]}, {"bufferView" : 1, "byteOffset" : 12, "componentType" : 5126, "count" : 552960, "type" : "VEC3", "max" : [13271017, 13271021, 13271025], "min" : [0.8484745025634766, 4.848474502563477, 8.848474502563477]}], "asset" : {"generator" : "Aspose.3D 20.8", "version" : "2.0"}, "buffers" : [{"uri" : "buffer.bin", "byteLength" : 15482888}], "bufferViews" : [{"buffer" : 0, "byteOffset" : 0, "byteLength" : 2211840, "target" : 34963}, {"buffer" : 0, "byteOffset" : 2211844, "byteLength" : 13271040, "byteStride" : 24, "target" : 34962}], "materials" : [{"pbrMetallicRoughness" : {"baseColorFactor" : [0.87058800458908, 0.87058800458908, 0.87058800458908, 1], "metallicFactor" : 0, "roughnessFactor" : 0.937129}, "emissiveFactor" : [0, 0, 0], "alphaMode" : "OPAQUE", "doubleSided" : false}], "meshes" : [{"primitives" : [{"attributes" : {"POSITION" : 1, "NORMAL" : 2}, "indices" : 0, "material" : 0, "mode" : 4}]}], "nodes" : [{"mesh" : 0, "name" : "Box001"}], "scene" : 0, "scenes" : [{"nodes" : [0]}]}